<svg xmlns="http://www.w3.org/2000/svg" version="1.1" xmlns:xlink="http://www.w3.org/1999/xlink" xmlns:svgjs="http://svgjs.dev/svgjs" width="2000" height="1875" viewBox="0 0 2000 1875"><g transform="matrix(1,0,0,1,0,0)"><svg viewBox="0 0 384 360" data-background-color="#ffffff" preserveAspectRatio="xMidYMid meet" height="1875" width="2000" xmlns="http://www.w3.org/2000/svg" xmlns:xlink="http://www.w3.org/1999/xlink"><g id="tight-bounds" transform="matrix(1,0,0,1,0,0)"><svg viewBox="0 0 384 360" height="360" width="384"><g><svg></svg></g><g><svg viewBox="0 0 384 360" height="360" width="384"><g><path xmlns="http://www.w3.org/2000/svg" d="M362.354 145.441v-42.24c0-21.12-19.163-38.402-42.587-38.402h-93.208c-15.198 0-28.337-8.831-34.559-21.646-6.222 12.81-19.36 21.646-34.559 21.646h-93.208c-23.424 0-42.587 17.282-42.587 38.402v42.24c0 15.198-8.831 28.337-21.646 34.559 12.81 6.222 21.646 19.36 21.646 34.559v42.24c0 21.12 19.163 38.402 42.587 38.402h93.208c15.198 0 28.337 8.831 34.559 21.646 6.222-12.81 19.36-21.646 34.559-21.646h93.208c23.424 0 42.587-17.282 42.587-38.402v-42.24c0-15.198 8.831-28.337 21.646-34.559-12.81-6.222-21.646-19.36-21.646-34.559z" fill="#6230a3" fill-rule="nonzero" stroke="none" stroke-width="1" stroke-linecap="butt" stroke-linejoin="miter" stroke-miterlimit="10" stroke-dasharray="" stroke-dashoffset="0" font-family="none" font-weight="none" font-size="none" text-anchor="none" style="mix-blend-mode: normal" data-fill-palette-color="tertiary"></path></g><g transform="matrix(1,0,0,1,103.79728711379052,99)"><svg viewBox="0 0 176.40542577241897 162" height="162" width="176.40542577241897"><g><svg viewBox="0 0 176.40542577241897 162" height="162" width="176.40542577241897"><g><svg viewBox="0 0 176.40542577241897 162" height="162" width="176.40542577241897"><g id="textblocktransform"><svg viewBox="0 0 176.40542577241897 162" height="162" width="176.40542577241897" id="textblock"><g><svg viewBox="0 0 176.40542577241897 162" height="162" width="176.40542577241897"><g transform="matrix(1,0,0,1,0,0)"><svg width="176.40542577241897" viewBox="0.17000001668930054 -31.959999084472656 35.28000259399414 32.39999771118164" height="162" data-palette-color="#ffffff"><path d="M27.64 0.44L27.64 0.44Q24.29 0.44 22.39-0.66L22.39-0.66Q20.34-1.81 20.17-3.91L20.17-3.91 19.95-6.2Q22.19-6.74 23.73-8.98L23.73-8.98Q24.15-9.62 24.15-10.08L24.15-10.08Q24.15-10.72 23.51-10.72L23.51-10.72 23.44-10.72Q23.41-10.69 23.34-10.69L23.34-10.69Q21.63-7.1 17.8-7.1L17.8-7.1Q15.84-7.1 14.47-7.96 13.09-8.81 11.94-10.91L11.94-10.91 11.79-10.91Q11.13-10.91 11.13-10.35L11.13-10.35Q11.13-9.96 11.43-9.47L11.43-9.47Q12.4-7.84 13.87-6.91L13.87-6.91Q15.01-6.13 16.28-5.98L16.28-5.98 16.09-1.37Q14.62-0.42 13 0.01 11.38 0.44 8.39 0.44 5.4 0.44 3.05-0.73L3.05-0.73Q0.17-2.17 0.17-4.74L0.17-4.74Q0.17-7.93 1.44-20.53L1.44-20.53Q2.12-27.1 2.54-29.71L2.54-29.71Q5.05-31.96 9.96-31.96L9.96-31.96Q13.53-31.96 15.87-30.64L15.87-30.64 17.21-26.15 16.36-22.56Q16.26-22.19 16.26-21.85L16.26-21.85Q16.26-21 17.24-20.97L17.24-20.97 19.56-30.62Q20.56-31.15 22.17-31.56 23.78-31.96 25.68-31.96L25.68-31.96Q29.25-31.96 30.97-30.75 32.69-29.54 33.01-26.68L33.01-26.68Q33.08-26.15 33.23-24.9L33.23-24.9Q35.45-5.81 35.45-2.42L35.45-2.42Q32.74 0.44 27.64 0.44Z" opacity="1" transform="matrix(1,0,0,1,0,0)" fill="#ffffff" class="undefined-text-0" data-fill-palette-color="quaternary" id="text-0"></path></svg></g></svg></g></svg></g></svg></g><g></g></svg></g></svg></g></svg></g><defs></defs></svg><rect width="384" height="360" fill="none" stroke="none" visibility="hidden"></rect></g></svg></g></svg>